<svg width="512" height="512" viewBox="0 0 100 100" xmlns="http://www.w3.org/2000/svg">
  <defs>
    <filter id="glow">
      <feGaussianBlur stdDeviation="1.5" result="coloredBlur"/>
      <feMerge>
        <feMergeNode in="coloredBlur"/>
        <feMergeNode in="SourceGraphic"/>
      </feMerge>
    </filter>
    <radialGradient id="bg-gradient" cx="50%" cy="50%" r="50%">
      <stop offset="0%" stop-color="#010401"/>
      <stop offset="100%" stop-color="#000000"/>
    </radialGradient>
  </defs>
  
  <rect width="100" height="100" fill="url(#bg-gradient)"/>
  
  <g filter="url(#glow)">
    <circle cx="50" cy="50" r="8" fill="none" stroke="#00f3ff" stroke-width="1.2" opacity="1"/>
    
    <circle cx="66" cy="50" r="8" fill="none" stroke="#00f3ff" stroke-width="1.2" opacity="0.9"/>
    <circle cx="58" cy="63.86" r="8" fill="none" stroke="#00f3ff" stroke-width="1.2" opacity="0.9"/>
    <circle cx="42" cy="63.86" r="8" fill="none" stroke="#00f3ff" stroke-width="1.2" opacity="0.9"/>
    <circle cx="34" cy="50" r="8" fill="none" stroke="#00f3ff" stroke-width="1.2" opacity="0.9"/>
    <circle cx="42" cy="36.14" r="8" fill="none" stroke="#00f3ff" stroke-width="1.2" opacity="0.9"/>
    <circle cx="58" cy="36.14" r="8" fill="none" stroke="#00f3ff" stroke-width="1.2" opacity="0.9"/>
    
    <circle cx="82" cy="50" r="8" fill="none" stroke="#00f3ff" stroke-width="1.2" opacity="0.7"/>
    <circle cx="74" cy="63.86" r="8" fill="none" stroke="#00f3ff" stroke-width="1.2" opacity="0.7"/>
    <circle cx="58" cy="77.71" r="8" fill="none" stroke="#00f3ff" stroke-width="1.2" opacity="0.7"/>
    <circle cx="42" cy="77.71" r="8" fill="none" stroke="#00f3ff" stroke-width="1.2" opacity="0.7"/>
    <circle cx="26" cy="63.86" r="8" fill="none" stroke="#00f3ff" stroke-width="1.2" opacity="0.7"/>
    <circle cx="18" cy="50" r="8" fill="none" stroke="#00f3ff" stroke-width="1.2" opacity="0.7"/>
    <circle cx="26" cy="36.14" r="8" fill="none" stroke="#00f3ff" stroke-width="1.2" opacity="0.7"/>
    <circle cx="42" cy="22.29" r="8" fill="none" stroke="#00f3ff" stroke-width="1.2" opacity="0.7"/>
    <circle cx="58" cy="22.29" r="8" fill="none" stroke="#00f3ff" stroke-width="1.2" opacity="0.7"/>
    <circle cx="74" cy="36.14" r="8" fill="none" stroke="#00f3ff" stroke-width="1.2" opacity="0.7"/>
    <circle cx="66" cy="22.29" r="8" fill="none" stroke="#00f3ff" stroke-width="1.2" opacity="0.7"/>
    <circle cx="34" cy="22.29" r="8" fill="none" stroke="#00f3ff" stroke-width="1.2" opacity="0.7"/>
    
    <circle cx="50" cy="50" r="3" fill="#00f3ff" opacity="0.9"/>
  </g>
  
  <circle cx="50" cy="50" r="46" fill="none" stroke="#00f3ff" stroke-width="0.5" opacity="0.3"/>
</svg>
